<svg viewBox="0 0 100 100" xmlns="http://www.w3.org/2000/svg" role="img" aria-label="웨딩셈 파비콘">
  <defs>
    <linearGradient id="gMini" x1="20%" y1="6%" x2="80%" y2="94%">
      <stop offset="0%" stop-color="#FF7FA9"/>
      <stop offset="100%" stop-color="#E23663"/>
    </linearGradient>
  </defs>
  <path fill="url(#gMini)" fill-rule="evenodd" d="
    M 50 94
    Q 35.5 73 12.6 49.4
    A 24 24 0 1 1 50 19.34
    A 24 24 0 1 1 87.4 49.4
    Q 64.5 73 50 94
    Z
    M 43 34 A 12 12 0 1 0 19 34 A 12 12 0 1 0 43 34 Z
    M 81 34 A 12 12 0 1 0 57 34 A 12 12 0 1 0 81 34 Z"/>
</svg>